<svg xmlns="http://www.w3.org/2000/svg" x="0px" y="0px" width="100" height="100" viewBox="0 0 48 48">
<path fill="#f2ca00" d="M38,5H10c-2.757,0-5,2.243-5,5v28c0,2.757,2.243,5,5,5h28c2.757,0,5-2.243,5-5V10	C43,7.243,40.757,5,38,5z"></path><path fill="#324561" d="M24.003,38.017c-0.986-0.001-2.656-0.338-3.942-0.981c-1.54-0.77-3.101-0.77-3.938-0.77	c-1.09,0-1.626-0.92-1.805-1.931c-1.048-0.271-1.827-0.677-2.631-1.349c-0.495-0.415-0.744-0.989-0.686-1.578	c0.062-0.613,0.444-1.155,1.051-1.484c1.849-1.009,3.132-3.331,3.695-4.526l-2.483-1.556c-0.969-0.72-1.335-1.891-0.979-2.959	c0.221-0.662,0.687-1.198,1.311-1.509c0.624-0.312,1.331-0.361,1.992-0.14l0.416,0.163v-1.299c0-4.462,3.588-8.094,7.998-8.097	c4.412,0.003,8,3.635,8,8.097v1.298l0.369-0.145c0.708-0.239,1.416-0.188,2.039,0.123c0.624,0.311,1.09,0.847,1.31,1.508	c0.355,1.07-0.012,2.24-0.911,2.913l-2.551,1.602c0.563,1.196,1.846,3.519,3.696,4.528c0.605,0.33,0.987,0.871,1.049,1.484	c0.059,0.588-0.19,1.162-0.683,1.576c-0.806,0.674-1.585,1.08-2.633,1.351c-0.179,1.011-0.715,1.931-1.805,1.931	c-0.838,0-2.398,0-3.939,0.77C26.657,37.679,24.988,38.016,24.003,38.017z M16.359,34.267c0.999,0.005,2.788,0.077,4.596,0.98	c0.949,0.475,2.321,0.769,3.048,0.77c0.725-0.001,2.096-0.295,3.045-0.77c1.809-0.904,3.598-0.975,4.597-0.98	c0.061-0.186,0.11-0.502,0.112-0.755c0.003-0.48,0.348-0.894,0.82-0.98c1.125-0.206,1.722-0.502,2.274-0.932	c-3.102-1.794-4.722-6.06-4.79-6.243c-0.166-0.445,0.003-0.945,0.405-1.197l3.211-2.012c0.142-0.11,0.227-0.384,0.144-0.634	c-0.051-0.152-0.159-0.277-0.305-0.35c-0.146-0.073-0.312-0.083-0.465-0.033l-1.687,0.662c-0.305,0.122-0.654,0.082-0.928-0.105	s-0.437-0.496-0.437-0.826v-2.763c0-3.36-2.691-6.095-6-6.097c-3.307,0.002-5.998,2.737-5.998,6.097v2.763	c0,0.331-0.163,0.64-0.437,0.826c-0.272,0.186-0.622,0.227-0.928,0.105l-1.733-0.679c-0.108-0.036-0.272-0.022-0.418,0.05	c-0.146,0.073-0.254,0.198-0.306,0.352c-0.082,0.249,0.003,0.522,0.212,0.679l3.144,1.966c0.402,0.252,0.571,0.752,0.405,1.197	c-0.068,0.184-1.688,4.448-4.789,6.242c0.562,0.435,1.157,0.729,2.273,0.933c0.476,0.087,0.82,0.501,0.82,0.984	C16.249,33.765,16.299,34.081,16.359,34.267z M35.05,31.718h0.011H35.05z"></path>
</svg>